<?xml version="1.0" encoding="UTF-8" standalone="no"?>
<!DOCTYPE svg PUBLIC "-//W3C//DTD SVG 1.1//EN" "http://www.w3.org/Graphics/SVG/1.1/DTD/svg11.dtd">
<svg width="100%" height="100%" viewBox="0 0 1453 192" version="1.1" xmlns="http://www.w3.org/2000/svg" xmlns:xlink="http://www.w3.org/1999/xlink" xml:space="preserve" xmlns:serif="http://www.serif.com/" style="fill-rule:evenodd;clip-rule:evenodd;stroke-linejoin:round;stroke-miterlimit:2;">
    <g transform="matrix(1,0,0,1,-340.706,-373.94)">
        <g transform="matrix(1,0,0,1,-664.904,-583.99)">
            <path d="M1036.54,1069.13C1036.54,1064.33 1036.94,1059.88 1037.74,1055.8C1038.54,1051.71 1039.57,1047.88 1040.81,1044.33L1057.88,1000.6C1059.65,996.151 1061.61,992.374 1063.74,989.263C1065.88,986.151 1069.61,984.596 1074.94,984.596L1101.08,984.596C1106.06,984.596 1109.61,986.151 1111.74,989.263C1113.88,992.374 1115.92,996.24 1117.88,1000.86L1136.28,1044.33C1137.52,1047.88 1138.54,1051.71 1139.34,1055.8C1140.14,1059.88 1140.54,1064.33 1140.54,1069.13L1140.54,1077.4L1036.54,1077.4L1036.54,1069.13ZM1079.21,1013.93L1066.68,1054.46L1108.54,1054.46L1096.01,1013.93C1095.3,1012.33 1094.54,1011.17 1093.74,1010.46C1092.94,1009.75 1092.01,1009.4 1090.94,1009.4L1084.28,1009.4C1083.21,1009.4 1082.28,1009.75 1081.48,1010.46C1080.68,1011.17 1079.92,1012.33 1079.21,1013.93ZM1140.54,1125.93L1143.21,1125.93L1143.21,1069.13C1143.21,1064.15 1142.81,1059.57 1142.01,1055.4C1141.21,1051.22 1140.1,1047.17 1138.68,1043.26L1120.28,999.796C1118.14,994.64 1115.88,990.374 1113.48,986.996C1111.08,983.618 1106.94,981.929 1101.08,981.929L1074.94,981.929C1068.9,981.929 1064.63,983.618 1062.14,986.996C1059.65,990.374 1057.43,994.551 1055.48,999.529L1038.41,1043.26C1036.99,1047.17 1035.88,1051.22 1035.08,1055.4C1034.28,1059.57 1033.88,1064.15 1033.88,1069.13L1033.88,1125.93L1036.54,1125.93L1036.54,1080.06L1140.54,1080.06L1140.54,1125.93ZM1064.01,1140.33C1064.01,1143.71 1063.26,1146.15 1061.74,1147.66C1060.23,1149.17 1057.79,1149.93 1054.41,1149.93L1015.21,1149.93C1011.83,1149.93 1009.39,1149.17 1007.88,1147.66C1006.37,1146.15 1005.61,1143.71 1005.61,1140.33L1005.61,1069.93C1005.61,1064.6 1006.46,1058.46 1008.14,1051.53C1009.83,1044.6 1012.46,1036.51 1016.01,1027.26L1039.21,966.729C1040.28,963.707 1041.92,961.485 1044.14,960.063C1046.37,958.64 1049.26,957.929 1052.81,957.929L1124.54,957.929C1127.92,957.929 1130.72,958.64 1132.94,960.063C1135.17,961.485 1136.81,963.707 1137.88,966.729L1161.08,1027.26C1164.63,1036.51 1167.26,1044.6 1168.94,1051.53C1170.63,1058.46 1171.48,1064.6 1171.48,1069.93L1171.48,1140.33C1171.48,1143.71 1170.72,1146.15 1169.21,1147.66C1167.7,1149.17 1165.26,1149.93 1161.88,1149.93L1121.61,1149.93C1118.06,1149.93 1115.43,1149.17 1113.74,1147.66C1112.06,1146.15 1111.21,1143.71 1111.21,1140.33L1111.21,1103L1064.01,1103L1064.01,1140.33Z" style="fill-rule:nonzero;"/>
            <path d="M1255.21,1149.93L1213.88,1149.93C1210.5,1149.93 1208.06,1149.17 1206.54,1147.66C1205.03,1146.15 1204.28,1143.71 1204.28,1140.33L1204.28,967.529C1204.28,964.151 1205.03,961.707 1206.54,960.196C1208.06,958.685 1210.5,957.929 1213.88,957.929L1295.48,957.929C1319.65,957.929 1336.19,962.729 1345.08,972.329C1353.97,981.929 1358.41,994.463 1358.41,1009.93L1358.41,1044.06C1358.41,1059.53 1353.97,1072.06 1345.08,1081.66C1336.19,1091.26 1319.65,1096.06 1295.48,1096.06L1264.81,1096.06L1264.81,1140.33C1264.81,1143.71 1264.06,1146.15 1262.54,1147.66C1261.03,1149.17 1258.59,1149.93 1255.21,1149.93ZM1291.74,1073.4C1300.1,1073.4 1306.9,1072.51 1312.14,1070.73C1317.39,1068.95 1321.43,1066.51 1324.28,1063.4C1327.12,1060.29 1329.08,1056.55 1330.14,1052.2C1331.21,1047.84 1331.74,1043.09 1331.74,1037.93L1331.74,1018.2C1331.74,1013.04 1331.21,1008.24 1330.14,1003.8C1329.08,999.351 1327.12,995.529 1324.28,992.329C1321.43,989.129 1317.39,986.596 1312.14,984.729C1306.9,982.863 1300.1,981.929 1291.74,981.929L1234.14,981.929L1234.14,1125.93L1236.81,1125.93L1236.81,1073.4L1291.74,1073.4ZM1236.81,1070.73L1236.81,984.596L1291.74,984.596C1299.57,984.596 1305.92,985.44 1310.81,987.129C1315.7,988.818 1319.48,991.174 1322.14,994.196C1324.81,997.218 1326.63,1000.77 1327.61,1004.86C1328.59,1008.95 1329.08,1013.4 1329.08,1018.2L1329.08,1037.93C1329.08,1042.73 1328.59,1047.13 1327.61,1051.13C1326.63,1055.13 1324.81,1058.6 1322.14,1061.53C1319.48,1064.46 1315.7,1066.73 1310.81,1068.33C1305.92,1069.93 1299.57,1070.73 1291.74,1070.73L1236.81,1070.73ZM1264.28,1007.8L1264.28,1048.06L1288.28,1048.06C1293.43,1048.06 1296.81,1046.73 1298.41,1044.06C1300.01,1041.4 1300.81,1038.37 1300.81,1035L1300.81,1020.86C1300.81,1017.49 1300.01,1014.46 1298.41,1011.8C1296.81,1009.13 1293.43,1007.8 1288.28,1007.8L1264.28,1007.8Z" style="fill-rule:nonzero;"/>
            <path d="M1437.08,1149.93L1395.74,1149.93C1392.37,1149.93 1389.92,1149.17 1388.41,1147.66C1386.9,1146.15 1386.14,1143.71 1386.14,1140.33L1386.14,967.529C1386.14,964.151 1386.9,961.707 1388.41,960.196C1389.92,958.685 1392.37,957.929 1395.74,957.929L1477.34,957.929C1501.52,957.929 1518.06,962.729 1526.94,972.329C1535.83,981.929 1540.28,994.463 1540.28,1009.93L1540.28,1044.06C1540.28,1059.53 1535.83,1072.06 1526.94,1081.66C1518.06,1091.26 1501.52,1096.06 1477.34,1096.06L1446.68,1096.06L1446.68,1140.33C1446.68,1143.71 1445.92,1146.15 1444.41,1147.66C1442.9,1149.17 1440.45,1149.93 1437.08,1149.93ZM1473.61,1073.4C1481.97,1073.4 1488.77,1072.51 1494.01,1070.73C1499.26,1068.95 1503.3,1066.51 1506.14,1063.4C1508.99,1060.29 1510.94,1056.55 1512.01,1052.2C1513.08,1047.84 1513.61,1043.09 1513.61,1037.93L1513.61,1018.2C1513.61,1013.04 1513.08,1008.24 1512.01,1003.8C1510.94,999.351 1508.99,995.529 1506.14,992.329C1503.3,989.129 1499.26,986.596 1494.01,984.729C1488.77,982.863 1481.97,981.929 1473.61,981.929L1416.01,981.929L1416.01,1125.93L1418.68,1125.93L1418.68,1073.4L1473.61,1073.4ZM1418.68,1070.73L1418.68,984.596L1473.61,984.596C1481.43,984.596 1487.79,985.44 1492.68,987.129C1497.57,988.818 1501.34,991.174 1504.01,994.196C1506.68,997.218 1508.5,1000.77 1509.48,1004.86C1510.45,1008.95 1510.94,1013.4 1510.94,1018.2L1510.94,1037.93C1510.94,1042.73 1510.45,1047.13 1509.48,1051.13C1508.5,1055.13 1506.68,1058.6 1504.01,1061.53C1501.34,1064.46 1497.57,1066.73 1492.68,1068.33C1487.79,1069.93 1481.43,1070.73 1473.61,1070.73L1418.68,1070.73ZM1446.14,1007.8L1446.14,1048.06L1470.14,1048.06C1475.3,1048.06 1478.68,1046.73 1480.28,1044.06C1481.88,1041.4 1482.68,1038.37 1482.68,1035L1482.68,1020.86C1482.68,1017.49 1481.88,1014.46 1480.28,1011.8C1478.68,1009.13 1475.3,1007.8 1470.14,1007.8L1446.14,1007.8Z" style="fill-rule:nonzero;"/>
            <path d="M1714.41,1149.93L1630.14,1149.93C1626.77,1149.93 1624.32,1149.17 1622.81,1147.66C1621.3,1146.15 1620.54,1143.71 1620.54,1140.33L1620.54,1109.13C1620.54,1105.75 1621.3,1103.31 1622.81,1101.8C1624.32,1100.29 1626.77,1099.53 1630.14,1099.53L1701.88,1099.53C1704.19,1099.53 1705.92,1098.77 1707.08,1097.26C1708.23,1095.75 1708.81,1093.93 1708.81,1091.8C1708.81,1088.77 1708.23,1086.55 1707.08,1085.13C1705.92,1083.71 1704.19,1082.91 1701.88,1082.73L1661.88,1077.13C1649.43,1075.35 1639.43,1071.26 1631.88,1064.86C1624.32,1058.46 1620.54,1047.8 1620.54,1032.86L1620.54,1004.86C1620.54,989.751 1625.43,978.151 1635.21,970.063C1644.99,961.974 1658.5,957.929 1675.74,957.929L1750.41,957.929C1753.79,957.929 1756.23,958.685 1757.74,960.196C1759.26,961.707 1760.01,964.151 1760.01,967.529L1760.01,999.263C1760.01,1002.64 1759.26,1005.09 1757.74,1006.6C1756.23,1008.11 1753.79,1008.86 1750.41,1008.86L1688.28,1008.86C1685.97,1008.86 1684.19,1009.62 1682.94,1011.13C1681.7,1012.64 1681.08,1014.55 1681.08,1016.86C1681.08,1019.17 1681.7,1021.13 1682.94,1022.73C1684.19,1024.33 1685.97,1025.22 1688.28,1025.4L1728.01,1030.73C1740.45,1032.51 1750.5,1036.6 1758.14,1043C1765.79,1049.4 1769.61,1060.06 1769.61,1075L1769.61,1103C1769.61,1118.11 1764.68,1129.71 1754.81,1137.8C1744.94,1145.88 1731.48,1149.93 1714.41,1149.93ZM1736.01,981.929L1676.81,981.929C1668.63,981.929 1662.06,984.196 1657.08,988.729C1652.1,993.263 1649.61,999.085 1649.61,1006.2L1649.61,1028.06C1649.61,1035.35 1651.08,1040.37 1654.01,1043.13C1656.94,1045.88 1660.72,1047.71 1665.34,1048.6L1721.61,1060.06C1726.59,1061.13 1730.54,1063.22 1733.48,1066.33C1736.41,1069.44 1737.88,1075.17 1737.88,1083.53L1737.88,1099C1737.88,1106.11 1735.43,1111.93 1730.54,1116.46C1725.65,1121 1719.12,1123.26 1710.94,1123.26L1644.54,1123.26L1644.54,1125.93L1710.94,1125.93C1720.01,1125.93 1727.21,1123.4 1732.54,1118.33C1737.88,1113.26 1740.54,1106.82 1740.54,1099L1740.54,1083.53C1740.54,1074.29 1738.81,1067.88 1735.34,1064.33C1731.88,1060.77 1727.48,1058.46 1722.14,1057.4L1665.88,1045.93C1661.79,1045.22 1658.5,1043.62 1656.01,1041.13C1653.52,1038.64 1652.28,1034.29 1652.28,1028.06L1652.28,1006.2C1652.28,999.974 1654.5,994.818 1658.94,990.729C1663.39,986.64 1669.34,984.596 1676.81,984.596L1736.01,984.596L1736.01,981.929Z" style="fill-rule:nonzero;"/>
            <path d="M1886.68,1149.93L1843.48,1149.93C1840.1,1149.93 1837.65,1149.17 1836.14,1147.66C1834.63,1146.15 1833.88,1143.71 1833.88,1140.33L1833.88,1009.4L1794.68,1009.4C1791.3,1009.4 1788.86,1008.64 1787.34,1007.13C1785.83,1005.62 1785.08,1003.17 1785.08,999.796L1785.08,967.529C1785.08,964.151 1785.83,961.707 1787.34,960.196C1788.86,958.685 1791.3,957.929 1794.68,957.929L1935.48,957.929C1938.86,957.929 1941.3,958.685 1942.81,960.196C1944.32,961.707 1945.08,964.151 1945.08,967.529L1945.08,999.796C1945.08,1003.17 1944.32,1005.62 1942.81,1007.13C1941.3,1008.64 1938.86,1009.4 1935.48,1009.4L1896.28,1009.4L1896.28,1140.33C1896.28,1143.71 1895.52,1146.15 1894.01,1147.66C1892.5,1149.17 1890.06,1149.93 1886.68,1149.93ZM1863.74,1125.93L1866.41,1125.93L1866.41,984.596L1921.08,984.596L1921.08,981.929L1809.08,981.929L1809.08,984.596L1863.74,984.596L1863.74,1125.93Z" style="fill-rule:nonzero;"/>
            <path d="M1987.21,1069.13C1987.21,1064.33 1987.61,1059.88 1988.41,1055.8C1989.21,1051.71 1990.23,1047.88 1991.48,1044.33L2008.54,1000.6C2010.32,996.151 2012.28,992.374 2014.41,989.263C2016.54,986.151 2020.28,984.596 2025.61,984.596L2051.74,984.596C2056.72,984.596 2060.28,986.151 2062.41,989.263C2064.54,992.374 2066.59,996.24 2068.54,1000.86L2086.94,1044.33C2088.19,1047.88 2089.21,1051.71 2090.01,1055.8C2090.81,1059.88 2091.21,1064.33 2091.21,1069.13L2091.21,1077.4L1987.21,1077.4L1987.21,1069.13ZM2029.88,1013.93L2017.34,1054.46L2059.21,1054.46L2046.68,1013.93C2045.97,1012.33 2045.21,1011.17 2044.41,1010.46C2043.61,1009.75 2042.68,1009.4 2041.61,1009.4L2034.94,1009.4C2033.88,1009.4 2032.94,1009.75 2032.14,1010.46C2031.34,1011.17 2030.59,1012.33 2029.88,1013.93ZM2091.21,1125.93L2093.88,1125.93L2093.88,1069.13C2093.88,1064.15 2093.48,1059.57 2092.68,1055.4C2091.88,1051.22 2090.77,1047.17 2089.34,1043.26L2070.94,999.796C2068.81,994.64 2066.54,990.374 2064.14,986.996C2061.74,983.618 2057.61,981.929 2051.74,981.929L2025.61,981.929C2019.57,981.929 2015.3,983.618 2012.81,986.996C2010.32,990.374 2008.1,994.551 2006.14,999.529L1989.08,1043.26C1987.65,1047.17 1986.54,1051.22 1985.74,1055.4C1984.94,1059.57 1984.54,1064.15 1984.54,1069.13L1984.54,1125.93L1987.21,1125.93L1987.21,1080.06L2091.21,1080.06L2091.21,1125.93ZM2014.68,1140.33C2014.68,1143.71 2013.92,1146.15 2012.41,1147.66C2010.9,1149.17 2008.46,1149.93 2005.08,1149.93L1965.88,1149.93C1962.5,1149.93 1960.06,1149.17 1958.54,1147.66C1957.03,1146.15 1956.28,1143.71 1956.28,1140.33L1956.28,1069.93C1956.28,1064.6 1957.12,1058.46 1958.81,1051.53C1960.5,1044.6 1963.12,1036.51 1966.68,1027.26L1989.88,966.729C1990.94,963.707 1992.59,961.485 1994.81,960.063C1997.03,958.64 1999.92,957.929 2003.48,957.929L2075.21,957.929C2078.59,957.929 2081.39,958.64 2083.61,960.063C2085.83,961.485 2087.48,963.707 2088.54,966.729L2111.74,1027.26C2115.3,1036.51 2117.92,1044.6 2119.61,1051.53C2121.3,1058.46 2122.14,1064.6 2122.14,1069.93L2122.14,1140.33C2122.14,1143.71 2121.39,1146.15 2119.88,1147.66C2118.37,1149.17 2115.92,1149.93 2112.54,1149.93L2072.28,1149.93C2068.72,1149.93 2066.1,1149.17 2064.41,1147.66C2062.72,1146.15 2061.88,1143.71 2061.88,1140.33L2061.88,1103L2014.68,1103L2014.68,1140.33Z" style="fill-rule:nonzero;"/>
            <path d="M2205.88,1149.93L2164.54,1149.93C2161.17,1149.93 2158.72,1149.17 2157.21,1147.66C2155.7,1146.15 2154.94,1143.71 2154.94,1140.33L2154.94,967.529C2154.94,964.151 2155.7,961.707 2157.21,960.196C2158.72,958.685 2161.17,957.929 2164.54,957.929L2283.48,957.929C2286.86,957.929 2289.3,958.685 2290.81,960.196C2292.32,961.707 2293.08,964.151 2293.08,967.529L2293.08,999.263C2293.08,1002.64 2292.32,1005.09 2290.81,1006.6C2289.3,1008.11 2286.86,1008.86 2283.48,1008.86L2215.48,1008.86L2215.48,1036.6L2261.88,1036.6C2265.26,1036.6 2267.7,1037.35 2269.21,1038.86C2270.72,1040.37 2271.48,1042.82 2271.48,1046.2L2271.48,1078.2C2271.48,1081.57 2270.72,1084.02 2269.21,1085.53C2267.7,1087.04 2265.26,1087.8 2261.88,1087.8L2215.48,1087.8L2215.48,1140.33C2215.48,1143.71 2214.72,1146.15 2213.21,1147.66C2211.7,1149.17 2209.26,1149.93 2205.88,1149.93ZM2184.01,1125.93L2186.68,1125.93L2186.68,1063.53L2247.48,1063.53L2247.48,1060.86L2186.68,1060.86L2186.68,984.596L2269.08,984.596L2269.08,981.929L2184.01,981.929L2184.01,1125.93Z" style="fill-rule:nonzero;"/>
            <path d="M2370.68,1149.93L2329.34,1149.93C2325.97,1149.93 2323.52,1149.17 2322.01,1147.66C2320.5,1146.15 2319.74,1143.71 2319.74,1140.33L2319.74,967.529C2319.74,964.151 2320.5,961.707 2322.01,960.196C2323.52,958.685 2325.97,957.929 2329.34,957.929L2448.28,957.929C2451.66,957.929 2454.1,958.685 2455.61,960.196C2457.12,961.707 2457.88,964.151 2457.88,967.529L2457.88,999.263C2457.88,1002.64 2457.12,1005.09 2455.61,1006.6C2454.1,1008.11 2451.66,1008.86 2448.28,1008.86L2380.28,1008.86L2380.28,1036.6L2426.68,1036.6C2430.05,1036.6 2432.5,1037.35 2434.01,1038.86C2435.52,1040.37 2436.28,1042.82 2436.28,1046.2L2436.28,1078.2C2436.28,1081.57 2435.52,1084.02 2434.01,1085.53C2432.5,1087.04 2430.05,1087.8 2426.68,1087.8L2380.28,1087.8L2380.28,1140.33C2380.28,1143.71 2379.52,1146.15 2378.01,1147.66C2376.5,1149.17 2374.05,1149.93 2370.68,1149.93ZM2348.81,1125.93L2351.48,1125.93L2351.48,1063.53L2412.28,1063.53L2412.28,1060.86L2351.48,1060.86L2351.48,984.596L2433.88,984.596L2433.88,981.929L2348.81,981.929L2348.81,1125.93Z" style="fill-rule:nonzero;"/>
        </g>
    </g>
</svg>
